<svg height="512" viewBox="0 0 512 512" width="512" xmlns="http://www.w3.org/2000/svg"><g><path d="m507.079 199.419a8 8 0 0 0 -6.781-5.484l-168.33-17.5-68.656-154.681a8 8 0 0 0 -14.624 0l-68.656 154.685-168.332 17.496a8 8 0 0 0 -4.518 13.908l125.9 113.1-35.382 165.493a8 8 0 0 0 11.831 8.6l146.469-84.792 146.465 84.788a8 8 0 0 0 11.831-8.6l-35.378-165.5 125.9-113.095a8 8 0 0 0 2.261-8.418zm-142.3 112.712a8 8 0 0 0 -2.477 7.623l32.578 152.4-134.872-78.077a8 8 0 0 0 -8.016 0l-134.874 78.078 32.578-152.4a8 8 0 0 0 -2.477-7.623l-115.935-104.147 155.009-16.11a8 8 0 0 0 6.485-4.711l63.222-142.444 63.222 142.444a8 8 0 0 0 6.485 4.711l155.009 16.11z"/><path d="m263.312 140.075a8 8 0 0 0 -14.624 0l-36.055 81.235-88.4 9.188a8 8 0 0 0 -4.518 13.908l66.115 59.394-18.579 86.914a8 8 0 0 0 11.831 8.6l76.918-44.533 76.918 44.528a8 8 0 0 0 11.831-8.6l-18.579-86.909 66.117-59.393a8 8 0 0 0 -4.518-13.908l-88.4-9.188zm48.721 154.917a8 8 0 0 0 -2.477 7.623l15.779 73.816-65.327-37.817a8 8 0 0 0 -8.016 0l-65.327 37.817 15.779-73.816a8 8 0 0 0 -2.477-7.623l-56.154-50.444 75.081-7.8a8 8 0 0 0 6.485-4.711l30.621-68.996 30.621 68.993a8 8 0 0 0 6.485 4.711l75.081 7.8z"/></g></svg>