<?xml version="1.0" encoding="iso-8859-1"?>
<!-- Generator: Adobe Illustrator 19.0.0, SVG Export Plug-In . SVG Version: 6.00 Build 0)  -->
<svg version="1.1" id="Layer_1" xmlns="http://www.w3.org/2000/svg" xmlns:xlink="http://www.w3.org/1999/xlink" x="0px" y="0px"
	 viewBox="0 0 512 512" style="enable-background:new 0 0 512 512;" xml:space="preserve">
<g>
	<g>
		<path d="M380.751,189.587c-3.907-3.905-10.237-3.905-14.143,0l-0.061,0.061c-3.906,3.905-3.875,10.207,0.03,14.112
			c1.946,1.945,4.499,2.914,7.057,2.914c2.576,0,5.156-0.984,7.117-2.944C384.656,199.824,384.656,193.492,380.751,189.587z"/>
	</g>
</g>
<g>
	<g>
		<path d="M495.363,229.188C506.092,218.46,512,204.196,512,189.023c0-13.741-4.86-26.727-13.744-37.026
			c2.487-6.785,3.794-14.023,3.794-21.465c0-15.387-5.556-29.915-15.701-41.315c11.612-28.755,5.815-62.978-17.408-86.277
			c-1.875-1.88-4.42-2.938-7.075-2.94c-0.003,0-0.005,0-0.005,0c-2.655,0-5.198,1.054-7.074,2.929L325.662,132.054
			c-51.321,51.321-51.339,134.844-0.038,186.187l109.93,110.02c0.001,0.001,0.002,0.002,0.003,0.003
			c1.953,1.953,4.512,2.929,7.071,2.929s5.118-0.976,7.071-2.929c3.904-3.904,3.905-10.234,0.003-14.139l-0.003-0.003
			c-38.396-38.397-38.396-100.872,0-139.269L495.363,229.188z M403.163,367.547l-63.391-63.443
			c-43.51-43.544-43.495-114.381,0.032-157.908L461.252,24.749c16.487,23.308,14.3,55.893-6.543,76.738l-64.368,64.368
			c-3.905,3.905-3.905,10.237,0,14.143c3.906,3.905,10.238,3.905,14.143,0l71.428-71.428c4.001,6.55,6.139,14.092,6.139,21.963
			c0,11.284-4.395,21.892-12.373,29.871l-63.109,63.109c-3.905,3.905-3.905,10.237,0,14.142c1.953,1.953,4.512,2.929,7.071,2.929
			c2.559,0,5.118-0.977,7.071-2.929c0,0,65.413-65.53,66.49-66.792c7.961,14.038,5.974,32.231-5.979,44.184l-45.664,45.664
			C406.579,289.69,395.784,330.07,403.163,367.547z"/>
	</g>
</g>
<g>
	<g>
		<path d="M203.789,366.606c-3.887-3.92-10.25-3.917-14.172-0.027c-3.922,3.889-3.948,10.221-0.058,14.142
			c1.955,1.971,4.528,2.958,7.1,2.958c2.546,0,5.093-0.967,7.042-2.901l0.061-0.06C207.684,376.829,207.679,370.527,203.789,366.606
			z"/>
	</g>
</g>
<g>
	<g>
		<path d="M428.264,435.557c-0.007-0.007-0.014-0.013-0.02-0.02L318.241,325.624c-51.344-51.301-134.867-51.282-186.188,0.038
			L2.929,454.788c-1.877,1.877-2.931,4.424-2.929,7.079c0.002,2.655,1.061,5.2,2.94,7.074
			c15.532,15.481,35.913,23.219,56.299,23.218c10.195-0.001,20.39-1.939,29.979-5.81c11.4,10.145,25.927,15.701,41.314,15.701
			c7.442,0,14.68-1.307,21.465-3.794C162.296,507.14,175.283,512,189.023,512c15.172,0,29.437-5.908,40.165-16.637l45.664-45.664
			c38.397-38.398,100.873-38.396,139.269,0c3.906,3.904,10.236,3.904,14.143,0C432.169,445.794,432.169,439.462,428.264,435.557z
			 M260.71,435.557l-45.664,45.664c-11.897,11.9-29.983,13.933-43.998,6.095l66.606-66.606c3.905-3.905,3.905-10.237,0-14.143
			c-3.906-3.905-10.236-3.905-14.143,0l-63.109,63.109c-7.979,7.979-18.587,12.373-29.87,12.373c-7.87,0-15.412-2.138-21.962-6.139
			l71.427-71.427l-0.036-0.035c3.223-3.928,3.001-9.736-0.667-13.404c-3.667-3.668-9.474-3.889-13.404-0.667l-0.036-0.036
			l-0.703,0.703l-63.664,63.664c-20.845,20.844-53.432,23.032-76.74,6.545l121.448-121.448
			c43.525-43.526,114.363-43.542,157.908-0.033l63.442,63.391C330.07,395.782,289.69,406.577,260.71,435.557z"/>
	</g>
</g>
<g>
</g>
<g>
</g>
<g>
</g>
<g>
</g>
<g>
</g>
<g>
</g>
<g>
</g>
<g>
</g>
<g>
</g>
<g>
</g>
<g>
</g>
<g>
</g>
<g>
</g>
<g>
</g>
<g>
</g>
</svg>
